<svg width="1000" height="1000" viewBox="0 0 1000 1000" fill="none" xmlns="http://www.w3.org/2000/svg">
<path fill-rule="evenodd" clip-rule="evenodd" d="M500.223 473.503C619.994 473.503 717.087 425.908 717.087 367.197C717.087 364.778 716.922 362.378 716.598 360C841.62 382.954 925.447 425.193 925.447 473.501C925.447 546.303 735.068 605.321 500.223 605.321C265.379 605.321 75 546.303 75 473.501C75 425.193 158.827 382.954 283.848 360C283.524 362.378 283.359 364.778 283.359 367.197C283.359 425.908 380.453 473.503 500.223 473.503Z" fill="black"/>
<path fill-rule="evenodd" clip-rule="evenodd" d="M582.336 633.375C551.85 639.182 533.957 651.61 520.928 660.66C512.343 666.623 505.871 671.119 499.3 671.287C492.729 671.119 486.256 666.623 477.672 660.66C464.643 651.61 446.75 639.182 416.264 633.375C391.881 628.73 367.943 625.864 346.066 623.244C310.787 619.019 280.865 615.436 263.078 606.075C252.461 600.487 241.843 742.576 326.778 792.626C388.153 828.794 433.689 812.691 466.82 800.975C479.362 796.539 490.127 792.732 499.3 792.629C508.472 792.732 519.237 796.539 531.78 800.975C564.91 812.691 610.446 828.794 671.822 792.626C756.756 742.576 746.138 600.487 735.521 606.075C717.734 615.436 687.813 619.019 652.534 623.244C630.656 625.864 606.718 628.73 582.336 633.375ZM602.593 690.662C577.033 690.662 559.999 698.925 560 724.896C560.001 750.867 592.233 755.589 614.105 748.506C651.371 736.439 664.757 681.218 655.548 684.759C646.338 688.301 626.768 690.662 602.593 690.662ZM396.006 690.662C421.567 690.662 438.6 698.925 438.6 724.896C438.599 750.867 406.367 755.589 384.494 748.506C347.228 736.439 333.842 681.218 343.052 684.759C352.261 688.301 371.831 690.662 396.006 690.662Z" fill="black"/>
<path fill-rule="evenodd" clip-rule="evenodd" d="M300 359.995C300.001 302.993 313.773 187 390 187C423.153 187 442.51 195.577 459.456 203.086C472.647 208.932 484.378 214.13 500.019 214.13C515.673 214.13 527.438 208.923 540.66 203.071C557.617 195.566 576.971 187 610 187C685.596 187 699.505 299.771 699.987 356.876C700.048 357.889 700.078 358.907 700.078 359.927C700.078 415.116 610.6 459.855 500.223 459.855C389.846 459.855 300 415.233 300 360.044C300 360.029 300 360.015 300 360" fill="black"/>
</svg>
