<svg width="350" height="210" viewBox="0 0 350 210" fill="none" xmlns="http://www.w3.org/2000/svg">
<path fill-rule="evenodd" clip-rule="evenodd" d="M110.753 191.17C111.341 191.102 112.158 190.781 112.874 190.5C113.195 190.375 113.496 190.257 113.747 190.173C113.749 190.172 113.751 190.171 113.753 190.17L113.747 190.173L110.753 191.17Z" fill="white"/>
<path fill-rule="evenodd" clip-rule="evenodd" d="M112.874 190.5C112.158 190.781 111.341 191.102 110.753 191.17L113.747 190.173C113.496 190.257 113.195 190.375 112.874 190.5Z" fill="white"/>
<path fill-rule="evenodd" clip-rule="evenodd" d="M206.753 184.67C231.617 165.619 259.155 136.07 277.253 110.671C263.209 119.098 198.793 145.696 170.991 154.017C147.987 161.824 116.616 171.49 93.2533 175.67C91.8017 181.568 94.6897 186.985 96.2533 191.67C97.8565 196.475 98.4537 200.636 100.863 204.67C104.48 210.725 107.151 211.025 112.042 206.038C115.192 202.827 118.234 199.001 121.253 195.67C124.275 192.338 127.147 190.303 130.753 190.17C134.157 190.045 139.529 190.993 143.253 192.17C152.264 195.021 160.677 199.231 170.253 199.67C185.127 200.352 195.496 193.296 206.753 184.67ZM193.253 158.17C192.42 166.541 188.253 174.316 182.753 176.67C174.253 182.17 165.231 180.694 159.253 180.67C159.018 180.67 151.406 180.629 148.253 180.17C145.464 179.765 145.253 178.17 150.753 176.17C161.181 171.012 172.048 166.675 182.581 162.47L182.584 162.469C186.189 161.03 189.756 159.606 193.253 158.17ZM117.753 183.67C117.575 185.808 114.198 190.022 113.753 190.17L113.747 190.173C113.496 190.257 113.195 190.375 112.874 190.5C112.158 190.781 111.341 191.102 110.753 191.17C110.368 191.17 109.704 190.839 109.139 190.556C108.762 190.368 108.43 190.202 108.253 190.17C106.694 189.781 104.475 187.247 102.902 185.451C102.458 184.943 102.065 184.495 101.753 184.17C102.386 184.048 103.77 183.952 105.008 183.867C106.012 183.798 106.92 183.736 107.253 183.67C107.88 183.548 108.919 183.606 109.9 183.66C110.769 183.709 111.592 183.755 112.042 183.67C113.026 183.486 114.423 183.548 115.803 183.61C116.474 183.64 117.141 183.669 117.753 183.67Z" fill="white"/>
<path fill-rule="evenodd" clip-rule="evenodd" d="M92 172.455C71.421 177.998 51.5665 182.909 30 181.955C29.1638 181.918 27.9813 181.888 26.5823 181.853L26.5793 181.853C20.3665 181.697 9.88721 181.434 6.49999 179.955C0.379108 177.284 -0.697094 173.506 3.15699 168.143C8.73301 160.382 27.1298 149.005 35.1723 144.251C43.5504 139.298 49.5586 136.416 55.6646 133.487C61.3579 130.756 67.1362 127.984 75 123.455L75.0992 123.398C77.7116 121.894 78.9474 121.183 78.3708 118.173C77.8716 115.568 77.3706 112.963 76.8697 110.358L76.8685 110.352L76.8672 110.345L76.866 110.339L76.8647 110.332C74.8293 99.747 72.7939 89.1618 70.8703 78.5564C70.6054 77.096 70.3023 75.6451 69.9992 74.1939C69.2894 70.7956 68.5792 67.3958 68.358 63.8685C67.8704 56.0959 70.9217 50.3739 76.8556 45.7665C87.7618 37.2985 100.223 31.7966 112.895 26.6681C134.486 17.9299 156.48 10.3916 179.068 4.67883C188.407 2.31686 197.893 0.724915 207.522 -0.101868C212.272 -0.509674 216.838 0.252258 221.392 1.07109C224.918 1.70506 226.92 4.53239 228.34 7.68683C230.216 11.8555 232.096 16.0223 233.977 20.189C239.351 32.0989 244.726 44.0087 250 55.963C251.477 59.3115 253.182 60.2493 256.922 59.3936L258.433 59.0478C264.099 57.7513 268.823 56.434 273.399 55.1578C285.279 51.8449 296.167 48.8086 319.964 47.1301C327.613 46.1762 337 45.7665 346 49.4552C354.904 53.7847 346.404 63.7847 335.404 73.2847C330.232 78.4572 329.522 78.8567 326.922 80.3192C326.816 80.3789 326.707 80.4403 326.594 80.504C326.532 80.5391 326.469 80.5748 326.404 80.6112C324.664 81.8729 321.979 83.4666 319.602 84.8774C317.884 85.897 316.327 86.8211 315.404 87.4552C309.134 90.4932 308.062 90.9871 306.985 91.4839C306.172 91.8586 305.356 92.235 302.302 93.706L302.301 93.7064C301.601 94.0003 297.767 96.2468 293.672 98.6466C289.01 101.378 284.009 104.308 282.904 104.785L261.904 114.785L213.404 135.455L170.157 150.785L140.904 160.285L117.657 166.785L92 172.455ZM199.657 22.9552C202.651 21.5389 208.135 16.4552 210.157 12.4552L196.404 19.2847L179.068 26.6681L154.904 36.2847C149.904 37.7847 111.404 49.2847 109.404 49.7847C108.889 49.9135 108.196 50.103 107.382 50.3252C104.064 51.2319 98.7507 52.6837 95.4042 52.7847L85 53.9552C85.3151 53.9814 85.6325 54.1334 85.9842 54.3018C86.3939 54.4979 86.8503 54.7164 87.4042 54.7847C92.4109 55.402 101.367 55.9459 110.657 53.9552C118.776 52.2153 135.399 47.215 146.851 43.7705C151.195 42.4636 154.795 41.3807 156.904 40.7847L180.904 31.2847L199.657 22.9552ZM132 132.5C135.392 131.942 150 128.5 152.5 127.5C156 126.5 163.117 124.133 163.5 124L180.5 118.398C184.248 117.2 188.157 115.427 192 114L200.5 111L227 99.5C235.659 95.0212 242.669 89.9944 247 86.3981C247.634 85.9827 248.227 85.5605 248.822 85.1369C249.879 84.3841 250.942 83.6273 252.253 82.8981C252.837 82.5731 253.291 82.0236 253.896 81.5118C254.5 81 255.261 80.1424 256.253 79.5686C256.063 80.6878 256.253 80.7615 255.976 82.1375C255.5 84.5 254.5 85.5 252.253 87.5686C245.156 94.1016 241.686 95.6347 236.405 98.6208C234.5 99.6975 232.328 100.926 229.596 102.569C225.479 104.528 222.716 105.951 220.599 107.041C218.04 108.359 216.425 109.19 214.5 109.898C214.089 110.049 211.27 111.288 208.517 112.498C205.966 113.619 203.471 114.715 203 114.898L193.5 118.398C191.342 119.09 175.909 124.385 175.5 124.569L154 131L126.5 136.898C126.5 136.898 107.506 139.069 106.253 139.069C105 139.069 99.0056 139.239 97.7528 139.069C96.5 138.898 93.5 137.898 93.5 137.898C93.5 137.898 91.4046 136.974 90.5 136.398C89.5954 135.822 89 135.398 88 134.398C87 133.398 86.2528 130.069 86.2528 130.069C86.2528 130.069 88 131.5 89.7528 132.619C91.5056 133.737 93.2533 134.665 93.2533 134.665C94.2533 135.165 97 136.069 98.5 136.398C99.8014 136.684 103.737 136.659 105.575 136.648C105.855 136.646 106.087 136.644 106.253 136.644C107.506 136.644 117.247 135.228 119.5 134.898C121.753 134.569 132 132.5 132 132.5Z" fill="white"/>
</svg>
